<svg width="32" height="32" viewBox="0 0 32 32" fill="none" xmlns="http://www.w3.org/2000/svg">
<path fill-rule="evenodd" clip-rule="evenodd" d="M26.0219 28.6724H7.71244V30.7028H26.0219C29.3577 30.7028 32 27.7428 32 24.1957C32 21.1778 30.122 18.5814 27.4544 17.8761C27.0732 13.4975 23.6888 10 19.5077 10C16.7484 10 14.2017 11.5809 12.7596 14.0688C12.3541 13.9208 11.9262 13.8444 11.4901 13.8444C10.1928 13.8444 9.0079 14.5321 8.27612 15.6235C7.85008 15.5362 7.41654 15.4919 6.98019 15.4919C3.0917 15.4919 0 18.9446 0 23.0974C0 27.2502 3.09171 30.7028 6.98019 30.7028H7.58155V28.6724H6.98019C4.2378 28.6724 1.93423 26.2119 1.93423 23.0973C1.93423 19.9827 4.23769 17.5222 6.98019 17.5222C7.48142 17.5222 7.97735 17.6039 8.45595 17.7652L9.29113 18.0468L9.63939 17.2027C9.98055 16.3764 10.7178 15.8747 11.4901 15.8747C11.8897 15.8747 12.277 16.0029 12.6129 16.2515L13.5684 16.9591L14.0515 15.8416C15.0596 13.5079 17.2122 12.0303 19.5077 12.0303C22.8038 12.0303 25.5557 14.9849 25.5569 18.6764L25.5534 19.6469L26.422 19.7409C28.4661 19.9631 30.0657 21.8462 30.0657 24.1957C30.0657 26.7051 28.2116 28.6724 26.0219 28.6724Z" fill="white"/>
<path fill-rule="evenodd" clip-rule="evenodd" d="M14.5585 3.79572C12.6457 4.06533 10.4838 5.64696 9.32887 9.63742L9.021 10.7012L7.99404 10.2867C6.61542 9.73034 5.23274 10.006 4.4341 10.8477C3.66235 11.661 3.1646 13.306 4.23309 16.0527L2.36916 16.7778C1.13653 13.6092 1.48824 11.0466 2.98328 9.47102C4.20445 8.18404 6.00214 7.76367 7.71739 8.12076C9.10446 4.23871 11.5807 2.19569 14.2794 1.8153C16.8225 1.45684 19.3213 2.6226 20.8506 4.69903C22.4796 3.96436 24.03 3.8286 25.3934 4.16134C26.9806 4.54871 28.2267 5.55096 28.9802 6.79421C29.7304 8.03191 30.0145 9.54796 29.6203 10.9769C29.2186 12.4329 28.1419 13.6909 26.3847 14.4231L25.6154 12.5769C26.8582 12.0591 27.469 11.2546 27.6923 10.445C27.9231 9.60832 27.7697 8.65562 27.2698 7.83082C26.7733 7.01157 25.9569 6.35757 24.9192 6.10431C23.8921 5.85364 22.5592 5.97513 20.9962 6.86826L20.1174 7.37041L19.6259 6.48566C18.5584 4.56406 16.5253 3.51851 14.5585 3.79572Z" fill="white"/>
</svg>
