<svg width="24" height="25" viewBox="0 0 24 25" fill="none" xmlns="http://www.w3.org/2000/svg">
<path d="M14.12 14.802C13.8454 15.0968 13.5141 15.3332 13.1462 15.4972C12.7782 15.6611 12.3809 15.7493 11.9781 15.7564C11.5753 15.7635 11.1752 15.6894 10.8016 15.5385C10.4281 15.3876 10.0887 15.1631 9.80385 14.8782C9.51897 14.5933 9.29439 14.254 9.14351 13.8804C8.99262 13.5069 8.91853 13.1068 8.92563 12.7039C8.93274 12.3011 9.02091 11.9039 9.18488 11.5359C9.34884 11.1679 9.58525 10.8367 9.88 10.562M17.94 18.622C16.2306 19.925 14.1491 20.6469 12 20.682C5 20.682 1 12.682 1 12.682C2.24389 10.3639 3.96914 8.33864 6.06 6.74203L17.94 18.622ZM9.9 4.92203C10.5883 4.76091 11.2931 4.68037 12 4.68203C19 4.68203 23 12.682 23 12.682C22.393 13.8176 21.6691 14.8868 20.84 15.872L9.9 4.92203Z" stroke="#0F0F0F" stroke-width="2" stroke-linecap="round" stroke-linejoin="round"/>
<path d="M1 1.68201L23 23.682" stroke="#0F0F0F" stroke-width="2" stroke-linecap="round" stroke-linejoin="round"/>
</svg>
