<svg width="32" height="32" viewBox="0 0 32 32" fill="none" xmlns="http://www.w3.org/2000/svg">
<path fill-rule="evenodd" clip-rule="evenodd" d="M30 4H2V28H30V4ZM2 2C0.895431 2 0 2.89543 0 4V28C0 29.1046 0.895431 30 2 30H30C31.1046 30 32 29.1046 32 28V4C32 2.89543 31.1046 2 30 2H2Z" fill="white"/>
<rect x="11" y="15" width="16" height="2" rx="1" fill="white"/>
<rect x="11" y="9.99999" width="16" height="2" rx="1" fill="white"/>
<rect x="11" y="20" width="11.7333" height="2" rx="1" fill="white"/>
<rect x="5" y="15" width="3" height="2" rx="1" fill="white"/>
<rect x="5" y="9.99999" width="3" height="2" rx="1" fill="white"/>
<rect x="5" y="20" width="3" height="2" rx="1" fill="white"/>
</svg>
