<svg width="33" height="32" viewBox="0 0 33 32" fill="none" xmlns="http://www.w3.org/2000/svg">
<g clip-path="url(#clip0)">
<path fill-rule="evenodd" clip-rule="evenodd" d="M0.776109 22.5014C1.27231 23.0089 1.94508 23.2944 2.64681 23.2952H5.07893V26.1796C5.07974 26.9273 5.37055 27.6442 5.88755 28.173C6.40454 28.7017 7.10601 28.9992 7.83716 29L29.2423 29C29.9734 28.9991 30.6744 28.7017 31.1914 28.173C31.7083 27.6442 31.9992 26.9268 32 26.1791L32 11.5252C31.9992 10.7775 31.7084 10.0606 31.1914 9.53182C30.6744 9.00306 29.9729 8.70565 29.2418 8.70481H27.9242L27.9242 5.70699C27.9234 4.9893 27.6443 4.30124 27.1481 3.79375C26.6519 3.28627 25.9786 3.00081 25.2769 3L2.64681 3C1.94508 3.00081 1.27231 3.28627 0.776109 3.79375C0.279907 4.30124 0.000792835 4.98982 0 5.70751L2.98957e-07 20.5882C0.000792835 21.3059 0.279907 21.994 0.776109 22.5014ZM5.07944 11.4747C5.07912 11.4915 5.07895 11.5083 5.07893 11.5251V17.0899L1.96751 19.9066V8.69448L5.07944 11.4747ZM18.1047 21.3943L7.04643 11.8178V11.5262C7.04666 11.3117 7.13009 11.106 7.27842 10.9543C7.42675 10.8026 7.62787 10.7173 7.83764 10.717H29.2413C29.451 10.7173 29.6521 10.8026 29.8005 10.9543C29.9487 11.1059 30.0321 11.3119 30.0325 11.5263L30.0325 11.8088L18.9829 21.3932L18.982 21.394C18.8597 21.5007 18.7042 21.5593 18.5434 21.5594C18.3827 21.5594 18.2271 21.5009 18.1047 21.3943ZM6.55317 9.02964C6.30204 9.1649 6.07373 9.33851 5.87569 9.54368L1.96751 6.10089V5.70787C1.96777 5.52346 2.03951 5.34667 2.16701 5.21628C2.29449 5.08589 2.46731 5.01252 2.64759 5.01224H25.2766C25.4569 5.01252 25.6297 5.0859 25.7572 5.21628C25.8846 5.34659 25.9563 5.52377 25.9567 5.70805L25.9567 8.70481H7.83701C7.38963 8.70496 6.94901 8.81645 6.55317 9.02964ZM11.6476 18.4388L7.04688 25.6113V14.4545L11.6476 18.4388ZM5.07893 21.283H2.95926L5.07893 19.398V21.283ZM23.9085 19.7587L28.5764 26.9878H8.4765L13.1912 19.8767L17.1238 23.2952C18.3745 23.9728 18.9813 23.905 19.9629 23.2952L23.9085 19.7587ZM25.5298 18.3883L30.0325 14.4545V25.6113L25.5298 18.3883Z" fill="white"/>
</g>
<defs>
<clipPath id="clip0">
<rect width="32" height="32" fill="white" transform="translate(0.5 0.333344)"/>
</clipPath>
</defs>
</svg>
