<svg width="27" height="27" viewBox="0 0 27 27" fill="none" xmlns="http://www.w3.org/2000/svg">
<g clip-path="url(#clip0)">
<path fill-rule="evenodd" clip-rule="evenodd" d="M1.19202 26.907C0.876927 27.071 0.489721 27.0143 0.237587 26.7671C-0.0145494 26.5199 -0.0724769 26.1401 0.0949654 25.8315L1.97787 22.3588C1.98323 22.3484 1.98882 22.3381 1.99467 22.3278L3.87741 18.8554L3.87814 18.854C3.87914 18.8521 3.88018 18.8501 3.88122 18.8484L3.88195 18.847L3.88252 18.846C3.92357 18.7723 3.97492 18.7075 4.03373 18.6525L16.9306 6.03588C16.6138 5.72522 16.6138 5.22161 16.9306 4.91103L19.9445 2.06607C19.9504 2.06043 19.9562 2.05478 19.9622 2.04929C20.7217 1.34868 21.7056 1 22.6888 1C23.7134 1 24.7371 1.3785 25.5055 2.13185C26.8849 3.48416 27.0324 5.64356 25.9257 7.16536C26.5786 7.96099 26.9996 9.03742 26.6742 10.1922C26.3047 11.5036 25.0699 12.558 23.0325 13.2816C21.1946 13.9345 19.8664 14.7271 18.9729 15.4622C18.0552 16.2171 17.6601 16.8563 17.5642 17.1732C17.4216 17.6442 16.9242 17.9104 16.4532 17.7679C15.9823 17.6253 15.716 17.1279 15.8586 16.6569C16.0991 15.8625 16.7926 14.9482 17.8408 14.0859C18.9131 13.2038 20.4282 12.3156 22.436 11.6024C24.2444 10.96 24.8192 10.2048 24.9589 9.70895C25.0668 9.32628 24.9741 8.88096 24.6625 8.44295L22.5586 10.4289C22.2419 10.7394 21.7282 10.7395 21.4114 10.4289L8.51466 23.0452C8.48262 23.0782 8.44733 23.1087 8.40904 23.1364C8.37164 23.1635 8.33237 23.1869 8.29181 23.207L4.76832 25.0433C4.75623 25.0499 4.7439 25.0563 4.73157 25.0624L1.19202 26.907ZM24.3582 3.2567C23.4687 2.38469 22.0018 2.36019 21.0824 3.20007L18.6515 5.47357L21.985 8.74171L24.4159 6.46829C25.2726 5.56701 25.2476 4.12871 24.3582 3.2567ZM20.2641 9.30409L18.0779 7.16073L5.74133 19.2279L7.92756 21.3713L20.2641 9.30409ZM6.57862 22.2983L4.79574 20.5504L3.70072 22.57L4.51862 23.3719L6.57862 22.2983ZM3.02049 24.1527L2.90432 24.0388L2.77257 24.2819L3.02049 24.1527Z" fill="#0F0F0F"/>
</g>
<defs>
<clipPath id="clip0">
<rect width="27" height="27" fill="white"/>
</clipPath>
</defs>
</svg>
