<svg width="32" height="32" viewBox="0 0 32 32" fill="none" xmlns="http://www.w3.org/2000/svg">
<path fill-rule="evenodd" clip-rule="evenodd" d="M19.2672 1.0062C18.7183 0.945223 18.2239 1.34077 18.1629 1.88968C18.1019 2.43858 18.4975 2.93299 19.0464 2.99397C21.5266 3.26951 23.8394 4.38019 25.6051 6.14365C27.3708 7.90711 28.4844 10.2185 28.763 12.6984C28.8247 13.2472 29.3196 13.6422 29.8685 13.5805C30.4173 13.5188 30.8122 13.0239 30.7505 12.4751C30.4212 9.54433 29.1052 6.81264 27.0184 4.72855C24.9317 2.64445 22.1984 1.33183 19.2672 1.0062ZM19.3483 6.35193C18.8062 6.24617 18.2811 6.59986 18.1753 7.14193C18.0695 7.68399 18.4232 8.20916 18.9653 8.31492C20.0723 8.53089 21.0896 9.07227 21.8871 9.86977C22.6846 10.6673 23.226 11.6846 23.442 12.7916C23.5477 13.3336 24.0729 13.6873 24.615 13.5816C25.157 13.4758 25.5107 12.9507 25.4049 12.4086C25.1127 10.9109 24.3803 9.53453 23.3013 8.45556C22.2223 7.37659 20.8459 6.64413 19.3483 6.35193Z" fill="white"/>
<path fill-rule="evenodd" clip-rule="evenodd" d="M10.9872 3.21995C10.3139 2.64093 9.45344 2.32597 8.56559 2.33342C5.09012 2.16676 1.59012 1.66676 1.09012 4.87644C0.584607 7.80354 2.09015 16.0474 8.56555 22.7494C14.5542 28.9476 22.8683 30.9334 25.4049 30.9334C28.5614 30.9334 29.4235 28.8982 29.4235 27.2247V23.2382C29.4424 22.3438 29.1337 21.4731 28.5551 20.7903C27.9737 20.1041 27.1604 19.6555 26.2698 19.5299L26.2609 19.5287C25.0558 19.3697 23.8726 19.075 22.7338 18.6501C22.5242 18.5714 22.3087 18.5125 22.0902 18.4734C21.6252 18.3903 21.1464 18.3975 20.6804 18.4969C19.9948 18.6431 19.3654 18.9828 18.867 19.4757L18.863 19.4796L17.719 20.6237C15.0438 18.9676 12.7893 16.7131 11.1332 14.0379L12.2772 12.8939L12.2812 12.8899C12.7741 12.3914 13.1138 11.7621 13.26 11.0765C13.4061 10.3913 13.3529 9.67861 13.1066 9.02275C12.8648 8.37451 12.6651 7.71188 12.5087 7.03903C12.3903 6.52994 12.2967 6.01499 12.2282 5.49599L12.2269 5.4868C12.1024 4.60579 11.6618 3.80011 10.9872 3.21995ZM9.6831 4.73632C9.37646 4.47261 8.98438 4.32939 8.57996 4.33337L8.57012 4.33347L4.57062 4.33342C4.33939 4.3337 4.11074 4.38209 3.89922 4.47552C3.68757 4.56901 3.4977 4.70555 3.3417 4.87644C3.1857 5.04733 3.067 5.24883 2.99314 5.46811C2.92003 5.68518 2.89246 5.91497 2.91211 6.14312C3.33422 10.1052 4.68301 13.9122 6.8494 17.2564L6.85417 17.2637C8.82255 20.3614 11.4488 22.9877 14.5464 24.9561L14.5542 24.961C17.8829 27.1196 21.671 28.4681 25.6148 28.8982C25.8433 28.9177 26.0735 28.8899 26.2908 28.8164C26.5106 28.7421 26.7125 28.6226 26.8835 28.4657C27.0545 28.3088 27.1909 28.1179 27.2839 27.9053C27.3769 27.6926 27.4244 27.4629 27.4235 27.2308L27.4235 27.2268V23.2268C27.4235 23.2185 27.4236 23.2102 27.4238 23.2019C27.4339 22.7933 27.2935 22.3951 27.0292 22.0832C26.7658 21.7723 26.3977 21.5687 25.9944 21.5109C25.4576 21.4399 24.9247 21.345 24.3972 21.2265C23.595 21.0463 22.8053 20.8115 22.0338 20.5237L22.0316 20.5228C21.7333 20.4107 21.4092 20.3864 21.0975 20.4529C20.7867 20.5192 20.5014 20.6729 20.2751 20.896L20.2733 20.8978L18.5839 22.5872C18.2656 22.9055 17.7738 22.9719 17.3825 22.7494C13.888 20.7623 10.9945 17.8689 9.00749 14.3744C8.78498 13.9831 8.85137 13.4913 9.16968 13.173L10.8608 11.4819C11.0839 11.2556 11.2377 10.9702 11.304 10.6593C11.3705 10.3477 11.3462 10.0236 11.2341 9.72528L11.2332 9.72303C10.7561 8.44431 10.4249 7.11578 10.2461 5.76272C10.1887 5.36381 9.98872 4.99915 9.6831 4.73632Z" fill="white"/>
</svg>
