<svg width="32" height="32" viewBox="0 0 32 32" fill="none" xmlns="http://www.w3.org/2000/svg">
<g clip-path="url(#clip0)">
<path fill-rule="evenodd" clip-rule="evenodd" d="M4.0534 2.53654C3.91035 3.31726 4.05854 4.14877 4.45207 5H2C0.895431 5 0 5.89543 0 7V14H2V30C2 31.1046 2.89543 32 4 32H28C29.1046 32 30 31.1046 30 30V14H32V7C32 5.89543 31.1046 5 30 5H27.9166C28.3102 4.14877 28.4584 3.31726 28.3153 2.53654C28.0431 1.05106 26.8354 0.265219 25.5535 0.0609752C23.2704 -0.302779 20.1314 0.951952 17.7699 4.06781C17.4348 3.43281 16.7679 3 16 3C15.3429 3 14.7598 3.31689 14.3952 3.80618C12.0593 0.881814 9.03335 -0.292422 6.81524 0.0609752C5.53329 0.265219 4.32557 1.05106 4.0534 2.53654ZM6.01728 2.93441C5.95428 3.27822 6.05195 3.96819 6.80111 5H12.7363C10.7862 2.64579 8.46949 1.92451 7.11485 2.14033C6.33428 2.26469 6.07324 2.62898 6.01728 2.93441ZM19.6324 5H25.5676C26.3168 3.96819 26.4144 3.27822 26.3514 2.93441C26.2955 2.62898 26.0344 2.26469 25.2539 2.14033C23.8992 1.92451 21.5825 2.64579 19.6324 5ZM17 7V12H30V7H17ZM28 30H17L17 14H28V30ZM15 30L15 14H4V30H15ZM15 12V7H2V12H15Z" fill="white"/>
</g>
<defs>
<clipPath id="clip0">
<rect width="32" height="32" fill="white"/>
</clipPath>
</defs>
</svg>
