<svg width="32" height="32" viewBox="0 0 32 32" fill="none" xmlns="http://www.w3.org/2000/svg">
<path fill-rule="evenodd" clip-rule="evenodd" d="M30 20H2V28H30V20ZM2 18C0.895431 18 0 18.8954 0 20V28C0 29.1046 0.895431 30 2 30H30C31.1046 30 32 29.1046 32 28V20C32 18.8954 31.1046 18 30 18H2Z" fill="white"/>
<rect x="12" y="23" width="15" height="2" rx="1" fill="white"/>
<rect x="5" y="23" width="3" height="2" rx="1" fill="white"/>
<path fill-rule="evenodd" clip-rule="evenodd" d="M30 4H2V12H30V4ZM2 2C0.895431 2 0 2.89543 0 4V12C0 13.1046 0.895431 14 2 14H30C31.1046 14 32 13.1046 32 12V4C32 2.89543 31.1046 2 30 2H2Z" fill="white"/>
<rect x="12" y="7" width="15" height="2" rx="1" fill="white"/>
<rect x="5" y="7" width="3" height="2" rx="1" fill="white"/>
<rect x="17" y="13" width="6" height="2" rx="1" transform="rotate(90 17 13)" fill="white"/>
</svg>
