<svg width="24" height="25" viewBox="0 0 24 25" fill="none" xmlns="http://www.w3.org/2000/svg">
<g clip-path="url(#clip0)">
<rect width="24" height="24" transform="translate(0 0.317871)" fill="white"/>
<path fill-rule="evenodd" clip-rule="evenodd" d="M12 14.3179C15.3137 14.3179 18 11.6316 18 8.31787C18 5.00416 15.3137 2.31787 12 2.31787C8.68629 2.31787 6 5.00416 6 8.31787C6 11.6316 8.68629 14.3179 12 14.3179ZM20 8.31787C20 12.7361 16.4183 16.3179 12 16.3179C7.58172 16.3179 4 12.7361 4 8.31787C4 3.89959 7.58172 0.317871 12 0.317871C16.4183 0.317871 20 3.89959 20 8.31787Z" fill="#303030"/>
<path fill-rule="evenodd" clip-rule="evenodd" d="M6.812 19.8408C4.16997 19.8408 2 22.0108 2 24.6528H0C0 20.9062 3.0654 17.8408 6.812 17.8408H17.188C20.9346 17.8408 24 20.9062 24 24.6528H22C22 22.0108 19.83 19.8408 17.188 19.8408H6.812Z" fill="#303030"/>
<path fill-rule="evenodd" clip-rule="evenodd" d="M11.9245 5.04259C10.6881 4.79567 9.48556 5.59782 9.23864 6.83425C9.13048 7.37584 8.60375 7.7272 8.06216 7.61904C7.52057 7.51088 7.16921 6.98416 7.27737 6.44256C7.74061 4.12297 9.99655 2.61808 12.3162 3.08132C12.8577 3.18948 13.2091 3.7162 13.1009 4.25779C12.9928 4.79939 12.4661 5.15075 11.9245 5.04259Z" fill="#303030"/>
<path fill-rule="evenodd" clip-rule="evenodd" d="M9.14945 7.80801C9.14945 7.80803 9.14945 7.80799 9.14945 7.80801L9.1491 7.81139L9.14731 7.82939C9.14569 7.846 9.14334 7.87123 9.14068 7.90298C9.13532 7.96706 9.12897 8.05475 9.12478 8.14999C9.12053 8.24677 9.11895 8.34192 9.12155 8.42323C9.12362 8.48794 9.12777 8.52223 9.12901 8.53242C9.12953 8.53672 9.1299 8.53621 9.12901 8.53242C9.2555 9.07002 8.92186 9.6089 8.38425 9.73539C7.84665 9.86188 7.30829 9.5286 7.1818 8.991C7.10672 8.67189 7.1173 8.27624 7.12671 8.06217C7.13235 7.93387 7.14073 7.8189 7.14765 7.7362C7.15113 7.69457 7.15431 7.66038 7.15669 7.63592L7.15961 7.60662L7.16052 7.59786L7.16093 7.59402C7.16094 7.59394 7.16101 7.59328 8.1458 7.69974L7.16093 7.59402C7.22029 7.04494 7.71361 6.64719 8.2627 6.70655C8.81169 6.7659 9.20864 7.25904 9.14945 7.80801Z" fill="#303030"/>
</g>
<defs>
<clipPath id="clip0">
<rect width="24" height="24" fill="white" transform="translate(0 0.317871)"/>
</clipPath>
</defs>
</svg>
