<svg width="32" height="32" viewBox="0 0 32 32" fill="none" xmlns="http://www.w3.org/2000/svg">
<path d="M31.6961 26.9478L17.9979 2.1787C17.7957 1.81523 17.5162 1.5278 17.1589 1.31683C16.8025 1.10567 16.4159 1 15.9998 1C15.5836 1 15.197 1.10586 14.8404 1.31683C14.4838 1.5278 14.2041 1.81523 14.0021 2.1787L0.303545 26.9478C-0.112723 27.687 -0.100853 28.4259 0.339156 29.1647C0.541511 29.5046 0.817961 29.7745 1.16869 29.9736C1.51968 30.173 1.89715 30.273 2.30148 30.273H29.6984C30.1032 30.273 30.4805 30.173 30.8313 29.9736C31.1824 29.7746 31.4584 29.5046 31.6608 29.1647C32.1008 28.4254 32.1128 27.687 31.6961 26.9478ZM18.2835 25.1886C18.2835 25.3526 18.2266 25.4903 18.1142 25.6017C18.0013 25.7132 17.8675 25.7686 17.7126 25.7686H14.288C14.1335 25.7686 13.9997 25.7132 13.8868 25.6017C13.7737 25.4903 13.7173 25.3526 13.7173 25.1886V21.8461C13.7173 21.6821 13.7738 21.5443 13.8868 21.433C13.9997 21.3214 14.1333 21.266 14.288 21.266H17.7124C17.8673 21.266 18.001 21.3214 18.114 21.433C18.2266 21.5443 18.2833 21.6821 18.2833 21.8461V25.1886H18.2835ZM18.2481 18.6096C18.2357 18.7268 18.1732 18.8234 18.0606 18.8998C17.9474 18.976 17.8078 19.014 17.6413 19.014H14.3414C14.175 19.014 14.0323 18.9758 13.9135 18.8998C13.7943 18.8232 13.735 18.7268 13.735 18.6092L13.4318 10.5702C13.4318 10.4059 13.4913 10.2828 13.6102 10.2008C13.7648 10.0718 13.9074 10.0073 14.0384 10.0073H17.9624C18.0934 10.0073 18.236 10.0716 18.3906 10.2008C18.5094 10.2828 18.5687 10.3942 18.5687 10.535L18.2481 18.6096Z" fill="#FFD200"/>
</svg>
