<svg width="48" height="48" viewBox="0 0 48 48" fill="none" xmlns="http://www.w3.org/2000/svg">
<g clip-path="url(#clip0)">
<path d="M48.0529 48H8V19.617H11.3379V16.0877L21.1997 9.28359V16.0877L30.6064 9.28359V19.6574H33.7L35.6144 0H40.9939L42.5366 19.6574H48L48.0529 48ZM42.0576 27H34.6622V32H42.0576V27ZM42.0576 34.6609H34.6624V39.6609H42.0576V34.6609Z" fill="#FFD200"/>
<path fill-rule="evenodd" clip-rule="evenodd" d="M4 25H2V46H4V25ZM2 23C0.895431 23 0 23.8954 0 25V48H6V25C6 23.8954 5.10457 23 4 23H2Z" fill="#0F0F0F"/>
<path fill-rule="evenodd" clip-rule="evenodd" d="M30 35L30 29L6 29L6 35L30 35ZM32 29C32 27.8954 31.1046 27 30 27L4 27L4 37L30 37C31.1046 37 32 36.1046 32 35L32 29Z" fill="#0F0F0F"/>
<path fill-rule="evenodd" clip-rule="evenodd" d="M11 32C11 31.4477 11.4477 31 12 31H24C24.5523 31 25 31.4477 25 32C25 32.5523 24.5523 33 24 33H12C11.4477 33 11 32.5523 11 32Z" fill="#0F0F0F"/>
</g>
<defs>
<clipPath id="clip0">
<rect width="48" height="48" fill="white"/>
</clipPath>
</defs>
</svg>
