<svg width="48" height="48" viewBox="0 0 48 48" fill="none" xmlns="http://www.w3.org/2000/svg">
<path d="M28.2 14.8V0H5V48H43V14.8H28.2ZM31 1.16V12H41.84L31 1.16Z" fill="#FFD200"/>
<path fill-rule="evenodd" clip-rule="evenodd" d="M13.9998 32.6667C18.0499 32.6667 21.3332 29.3834 21.3332 25.3333C21.3332 21.2832 18.0499 18 13.9998 18C9.94975 18 6.6665 21.2832 6.6665 25.3333C6.6665 29.3834 9.94975 32.6667 13.9998 32.6667ZM23.3332 25.3333C23.3332 30.488 19.1545 34.6667 13.9998 34.6667C8.84518 34.6667 4.6665 30.488 4.6665 25.3333C4.6665 20.1787 8.84518 16 13.9998 16C19.1545 16 23.3332 20.1787 23.3332 25.3333Z" fill="#0F0F0F"/>
<path fill-rule="evenodd" clip-rule="evenodd" d="M7.94734 38.4436C4.68087 38.4436 2 41.1245 2 44.3909H0C0 40.0199 3.5763 36.4436 7.94734 36.4436H20.0527C24.4237 36.4436 28 40.0199 28 44.3909H26C26 41.1245 23.3191 38.4436 20.0527 38.4436H7.94734Z" fill="#0F0F0F"/>
<path fill-rule="evenodd" clip-rule="evenodd" d="M13.9447 21.3486C12.4119 21.0425 10.9212 22.0369 10.6151 23.5697C10.5069 24.1113 9.98022 24.4627 9.43863 24.3545C8.89704 24.2463 8.54567 23.7196 8.65383 23.178C9.17626 20.5621 11.7204 18.8649 14.3363 19.3874C14.8779 19.4955 15.2293 20.0223 15.1211 20.5638C15.013 21.1054 14.4862 21.4568 13.9447 21.3486Z" fill="#0F0F0F"/>
<path fill-rule="evenodd" clip-rule="evenodd" d="M9.62204 23.6191C10.1711 23.6785 10.5681 24.1717 10.5088 24.7208L9.51456 24.6134C10.5088 24.7208 10.5088 24.7209 10.5088 24.7208C10.5088 24.7209 10.5088 24.7205 10.5088 24.7208L10.5083 24.7254L10.5061 24.7473C10.5042 24.7673 10.5013 24.7975 10.4982 24.8354C10.4918 24.9117 10.4842 25.0163 10.4792 25.1301C10.4741 25.2455 10.4721 25.3611 10.4754 25.4616C10.477 25.5114 10.4797 25.552 10.4829 25.5833C10.4858 25.6112 10.4883 25.6236 10.4883 25.6236C10.4883 25.6236 10.4882 25.6232 10.488 25.6224C10.6145 26.16 10.2812 26.6984 9.74359 26.8249C9.20598 26.9513 8.66763 26.6181 8.54114 26.0805C8.45951 25.7335 8.47009 25.2936 8.48113 25.0423C8.48759 24.8954 8.4972 24.7635 8.50514 24.6686C8.50914 24.6209 8.51278 24.5817 8.51549 24.5538L8.51881 24.5206L8.51982 24.5108L8.52027 24.5066C8.52028 24.5066 8.52035 24.5059 9.51456 24.6134L8.52027 24.5066C8.57963 23.9576 9.07295 23.5598 9.62204 23.6191Z" fill="#0F0F0F"/>
</svg>
