<svg width="73" height="32" viewBox="0 0 73 32" fill="none" xmlns="http://www.w3.org/2000/svg">
<path d="M48.8618 30.69H56.5657V28.019H51.6895V14.7087H48.8618V30.69Z" fill="white"/>
<path d="M1.27734 30.69H9.82701V28.019H4.0827V23.681H9.15907V21.0099H4.0827V17.3798H9.64889V14.7087H1.27734V30.69Z" fill="white"/>
<path d="M12.8257 30.69H15.6533V23.681H20.6852V20.9186H15.6533V17.3798H21.2196V14.7087H12.8257V30.69Z" fill="white"/>
<path d="M32.7991 19.2064C32.7991 17.8137 32.3538 16.6722 31.4854 15.8046C30.6171 14.9142 29.5484 14.4805 28.257 14.4805C26.9879 14.4805 25.8969 14.9142 25.0063 15.759C24.138 16.6039 23.6927 17.6767 23.6927 18.9324C23.6704 21.8319 26.075 23.019 27.8562 23.9094C29.1253 24.5487 30.1495 25.4164 30.1495 26.6034C30.1495 27.4481 29.3257 28.247 28.3461 28.247H28.1011C27.0992 28.247 26.2754 27.4253 26.2754 26.4436V25.713H23.4478V26.4436C23.4478 27.6764 23.8931 28.7265 24.7837 29.6168C25.6965 30.4846 26.7875 30.9184 28.0566 30.9184H28.4129C29.682 30.9184 30.7729 30.4846 31.6635 29.6168C32.5541 28.7265 32.9994 27.6764 32.9994 26.4436C33.0217 23.407 30.6171 21.9688 28.7914 21.1011C27.5445 20.4392 26.5203 19.6628 26.5203 18.7267C26.5203 17.8364 27.2996 17.1514 28.257 17.1514C29.2367 17.1514 29.9937 18.0418 29.9937 19.206H32.7991V19.2064Z" fill="white"/>
<path d="M45.402 18.9552C45.402 17.7224 44.9569 16.6722 44.0663 15.8046C43.1757 14.9142 42.1072 14.4805 40.8379 14.4805H40.4818C39.2125 14.4805 38.1438 14.9142 37.2309 15.8046C36.3403 16.6722 35.895 17.7224 35.895 18.9552V26.4208C35.895 27.6536 36.3403 28.704 37.2309 29.5944C38.1438 30.4848 39.2123 30.9186 40.4818 30.9186H40.8379C42.1072 30.9186 43.1759 30.4848 44.0663 29.617C44.9569 28.7266 45.402 27.6766 45.402 26.4438V18.9552ZM42.5968 26.5806C42.5968 27.4938 41.7505 28.247 40.7711 28.247H40.5482C39.5688 28.247 38.7225 27.4938 38.7225 26.5578V18.8184C38.7225 17.905 39.5688 17.1518 40.5482 17.1518H40.7931C41.773 17.1518 42.5968 17.8824 42.5968 18.8184V26.5806Z" fill="white"/>
<path d="M57.0125 1.84601H70.8885V14.4614H57.0125V1.84601Z" fill="white"/>
<path d="M71.7658 0.935608H56.4358V14.7836H71.7658V0.935608ZM68.9203 4.08471C69.39 4.55404 69.6311 5.17158 69.6311 5.92499H68.1134C68.1134 5.29509 67.7039 4.81341 67.1741 4.81341C66.6562 4.81341 66.2348 5.18394 66.2348 5.66562C66.2348 6.17201 66.7887 6.59194 67.4632 6.95011C68.4509 7.41944 69.7517 8.19755 69.7397 9.84022C69.7397 10.5072 69.4988 11.0753 69.0172 11.557C68.5352 12.0263 67.945 12.261 67.2584 12.261H67.0655C66.3789 12.261 65.7887 12.0263 65.2951 11.557C64.8131 11.0753 64.5722 10.5072 64.5722 9.84022V9.44499H66.1021V9.84022C66.1021 10.3713 66.5476 10.8159 67.0898 10.8159H67.2223C67.7523 10.8159 68.1981 10.3837 68.1981 9.92667C68.1981 9.28443 67.6439 8.81509 66.9573 8.46927L66.9427 8.46197C65.9807 7.98104 64.6928 7.33748 64.7049 5.77678C64.7049 5.09748 64.9458 4.51699 65.4157 4.06001C65.8975 3.60302 66.4875 3.36836 67.1743 3.36836C67.8725 3.36836 68.4507 3.60302 68.9203 4.08471ZM63.2511 12.1375H58.6258V3.49187H63.1547V4.93692H60.1435V6.90071H62.8895V8.34576H60.1435V10.6924H63.2509V12.1375H63.2511Z" fill="#FFD200"/>
</svg>
