<svg width="280" height="114" viewBox="0 0 280 114" fill="none" xmlns="http://www.w3.org/2000/svg">
<path d="M187.415 108.392H216.964V98.3496H198.261V48.3036H187.415V108.392Z" fill="#1E1E1F"/>
<path d="M4.89954 108.392H37.6928V98.3496H15.6598V82.0391H35.1308V71.9957H15.6598V58.347H37.0096V48.3036H4.89954V108.392Z" fill="#1E1E1F"/>
<path d="M49.1942 108.392H60.04V82.0391H79.3404V71.6524H60.04V58.347H81.39V48.3036H49.1942V108.392Z" fill="#1E1E1F"/>
<path d="M125.804 65.2146C125.804 59.9783 124.096 55.6863 120.766 52.4243C117.435 49.0765 113.336 47.4456 108.383 47.4456C103.515 47.4456 99.3303 49.0765 95.9143 52.2526C92.5837 55.4295 90.8757 59.4633 90.8757 64.1845C90.7903 75.0863 100.013 79.5501 106.845 82.8979C111.713 85.3014 115.642 88.5641 115.642 93.0271C115.642 96.2032 112.482 99.2069 108.724 99.2069H107.785C103.942 99.2069 100.782 96.1173 100.782 92.4262V89.6793H89.9363V92.4262C89.9363 97.0616 91.6443 101.01 95.0603 104.357C98.5617 107.62 102.746 109.251 107.614 109.251H108.98C113.848 109.251 118.033 107.62 121.449 104.357C124.865 101.01 126.573 97.0616 126.573 92.4262C126.658 81.0086 117.435 75.6014 110.432 72.3387C105.65 69.85 101.721 66.9307 101.721 63.4113C101.721 60.0635 104.71 57.4882 108.383 57.4882C112.14 57.4882 115.044 60.836 115.044 65.2132H125.804V65.2146Z" fill="#1E1E1F"/>
<path d="M174.145 64.2704C174.145 59.635 172.438 55.6863 169.022 52.4243C165.606 49.0765 161.507 47.4456 156.639 47.4456H155.273C150.405 47.4456 146.305 49.0765 142.804 52.4243C139.388 55.6863 137.68 59.635 137.68 64.2704V92.3403C137.68 96.9758 139.388 100.925 142.804 104.273C146.305 107.621 150.404 109.252 155.273 109.252H156.639C161.507 109.252 165.606 107.621 169.022 104.358C172.438 101.01 174.145 97.0623 174.145 92.4269V64.2704ZM163.385 92.9412C163.385 96.3749 160.139 99.2069 156.383 99.2069H155.528C151.771 99.2069 148.525 96.3749 148.525 92.8554V63.756C148.525 60.3217 151.771 57.4896 155.528 57.4896H156.467C160.226 57.4896 163.385 60.2366 163.385 63.756V92.9412Z" fill="#1E1E1F"/>
<path d="M218.678 -0.059082H271.902V47.374H218.678V-0.059082Z" fill="white"/>
<path d="M275.266 -3.48221H216.466V48.5852H275.266V-3.48221ZM264.352 8.35821C266.154 10.1229 267.078 12.4448 267.078 15.2775H261.257C261.257 12.9092 259.686 11.0981 257.654 11.0981C255.668 11.0981 254.051 12.4912 254.051 14.3023C254.051 16.2063 256.176 17.7852 258.763 19.1319C262.552 20.8966 267.541 23.8222 267.495 29.9986C267.495 32.5062 266.571 34.6424 264.724 36.4535C262.875 38.2182 260.611 39.1005 257.978 39.1005H257.238C254.604 39.1005 252.341 38.2182 250.447 36.4535C248.598 34.6424 247.674 32.5062 247.674 29.9986V28.5125H253.543V29.9986C253.543 31.9954 255.251 33.6672 257.331 33.6672H257.839C259.872 33.6672 261.582 32.0419 261.582 30.3236C261.582 27.9088 259.456 26.1442 256.823 24.8439L256.767 24.8164C253.077 23.0082 248.137 20.5884 248.183 14.7203C248.183 12.1662 249.107 9.98355 250.91 8.26533C252.758 6.5471 255.021 5.66477 257.655 5.66477C260.333 5.66477 262.551 6.5471 264.352 8.35821ZM242.607 38.6361H224.866V6.12916H242.238V11.5625H230.688V18.9462H241.22V24.3795H230.688V33.2028H242.606V38.6361H242.607Z" fill="#FFD200"/>
</svg>
