<svg width="48" height="48" viewBox="0 0 48 48" fill="none" xmlns="http://www.w3.org/2000/svg">
<g clip-path="url(#clip0)">
<path d="M43.7134 37C44.7924 37 45.7273 36.6883 46.5221 36.0728L32.923 24.1732C32.5967 24.3777 32.2805 24.5765 31.9817 24.7655C30.964 25.4216 30.1381 25.9335 29.5038 26.3004C28.8697 26.6681 28.0259 27.0428 26.9727 27.4255C25.9187 27.8086 24.9368 27.9995 24.026 27.9995H23.9993H23.9727C23.0617 27.9995 22.0798 27.8086 21.026 27.4255C19.9721 27.0428 19.1284 26.6681 18.4948 26.3004C17.8607 25.9335 17.0351 25.4216 16.0169 24.7655C15.7332 24.5835 15.4185 24.3838 15.0783 24.17L1.47656 36.0728C2.27125 36.6883 3.20676 37 4.28563 37H43.7134V37Z" fill="#FFD200"/>
<path d="M2.70563 16.6797C1.68802 16.086 0.785623 15.4062 0 14.6404V32.7445L11.9862 22.2567C9.58826 20.7919 6.49867 18.9351 2.70563 16.6797Z" fill="#FFD200"/>
<path d="M45.3214 16.6797C41.673 18.8403 38.5722 20.7004 36.0186 22.2609L47.9999 32.745V14.6404C47.2317 15.3908 46.339 16.0702 45.3214 16.6797Z" fill="#FFD200"/>
<path d="M43.7136 4H4.2859C2.91039 4 1.85287 4.40642 1.11204 5.21843C0.370598 6.03082 0.000488281 7.04681 0.000488281 8.26524C0.000488281 9.24942 0.491644 10.3158 1.47352 11.4647C2.4554 12.6131 3.50019 13.5152 4.60739 14.1713C5.21436 14.5466 7.04478 15.66 10.0986 17.5113C11.7472 18.5109 13.1808 19.3821 14.4128 20.134C15.4629 20.7742 16.3686 21.3286 17.1163 21.7887C17.2021 21.8414 17.3371 21.9259 17.5163 22.038C17.7093 22.1593 17.9536 22.3132 18.2549 22.5036C18.8352 22.8709 19.3173 23.1677 19.7013 23.3945C20.0847 23.6213 20.5493 23.8747 21.0943 24.1561C21.6389 24.4371 22.1525 24.6484 22.6346 24.7889C23.1168 24.9294 23.5632 24.9998 23.9738 24.9998H24.0005H24.0271C24.4377 24.9998 24.8841 24.9294 25.3664 24.7889C25.8484 24.6484 26.3616 24.4375 26.9066 24.1561C27.4511 23.8747 27.9151 23.6208 28.2997 23.3945C28.6837 23.1677 29.1658 22.8709 29.7462 22.5036C30.0469 22.3132 30.2912 22.1592 30.4842 22.0384C30.6635 21.9258 30.7984 21.8418 30.8848 21.7887C31.4672 21.4341 32.375 20.8819 33.5954 20.1404C35.816 18.7904 39.0864 16.8033 43.4204 14.1713C44.7238 13.3747 45.8128 12.4134 46.688 11.2888C47.5617 10.1641 47.9997 8.98445 47.9997 7.75008C47.9997 6.71877 47.575 5.8363 46.7275 5.10131C45.879 4.36723 44.8743 4 43.7136 4Z" fill="#FFD200"/>
<path d="M13.0832 23C15.5778 23 17.8045 23.5174 19.7633 24.5522C21.7221 25.5686 23.2466 27.0007 24.3369 28.8486C25.4456 30.6965 26 32.8031 26 35.1684C26 37.5338 25.5657 39.3909 24.6972 40.7399C23.8287 42.0888 22.6183 42.7633 21.0661 42.7633C20.1791 42.7633 19.4399 42.5416 18.8486 42.0981C18.2758 41.6361 17.9062 40.9801 17.7399 40.1301C17.1855 40.9801 16.4556 41.6361 15.5501 42.0981C14.6631 42.5416 13.6375 42.7633 12.4733 42.7633C11.1798 42.7633 10.0156 42.4584 8.98081 41.8486C7.94598 41.2388 7.13291 40.398 6.54158 39.3262C5.96873 38.236 5.6823 37.0071 5.6823 35.6397C5.6823 34.2907 5.96873 33.0803 6.54158 32.0085C7.13291 30.9183 7.94598 30.0775 8.98081 29.4861C10.0156 28.8763 11.1798 28.5714 12.4733 28.5714C13.5451 28.5714 14.5153 28.7747 15.3838 29.1812C16.2523 29.5693 16.973 30.1514 17.5458 30.9275V28.6823H19.9574V38.661C19.9574 39.3447 20.1052 39.8529 20.4009 40.1855C20.6965 40.4996 21.0753 40.6567 21.5373 40.6567C22.3504 40.6567 22.9787 40.1855 23.4222 39.2431C23.8842 38.2822 24.1151 36.9332 24.1151 35.1962C24.1151 33.145 23.6532 31.3433 22.7292 29.791C21.8053 28.2203 20.5025 27.0007 18.8209 26.1322C17.1578 25.2637 15.2452 24.8294 13.0832 24.8294C10.9026 24.8294 8.97157 25.2822 7.28998 26.1876C5.62687 27.0931 4.33333 28.3589 3.40938 29.9851C2.48543 31.6112 2.02345 33.4684 2.02345 35.5565C2.02345 37.6631 2.47619 39.5295 3.38166 41.1556C4.30561 42.7818 5.58991 44.0476 7.23454 44.9531C8.89765 45.877 10.8102 46.339 12.9723 46.339C13.8778 46.339 14.8017 46.2374 15.7441 46.0341C16.6866 45.8308 17.5458 45.5259 18.322 45.1194L18.9318 46.8934C18.1187 47.3184 17.1763 47.6418 16.1045 47.8635C15.0327 48.0853 13.9886 48.1962 12.9723 48.1962C10.4407 48.1962 8.18621 47.651 6.20895 46.5608C4.25018 45.489 2.72566 43.9922 1.63539 42.0704C0.545132 40.1485 0 37.9773 0 35.5565C0 33.1357 0.545132 30.9737 1.63539 29.0704C2.74414 27.167 4.28714 25.6795 6.26439 24.6077C8.26013 23.5359 10.533 23 13.0832 23ZM12.8614 40.6013C13.7669 40.6013 14.5707 40.398 15.2729 39.9915C15.9936 39.5849 16.5572 39.0121 16.9638 38.2729C17.3888 37.5153 17.6013 36.6375 17.6013 35.6397C17.6013 34.6418 17.3888 33.7733 16.9638 33.0341C16.5572 32.2765 15.9936 31.7036 15.2729 31.3156C14.5707 30.909 13.7669 30.7058 12.8614 30.7058C11.457 30.7058 10.3205 31.1585 9.45202 32.064C8.58351 32.951 8.14925 34.1429 8.14925 35.6397C8.14925 37.1365 8.58351 38.3376 9.45202 39.2431C10.339 40.1485 11.4755 40.6013 12.8614 40.6013Z" fill="#0F0F0F"/>
</g>
<defs>
<clipPath id="clip0">
<rect width="48" height="48" fill="white"/>
</clipPath>
</defs>
</svg>
