<svg width="48" height="48" viewBox="0 0 48 48" fill="none" xmlns="http://www.w3.org/2000/svg">
<path d="M11.1389 14.4177V19.4295H10.8055C8.70658 19.4295 7 21.1361 7 23.235V44.1945C7 46.2934 8.70658 48 10.8055 48H40.0527C42.1516 48 43.8582 46.2934 43.8582 44.1945V23.2252C43.8582 21.1263 42.1516 19.4197 40.0527 19.4197H39.9546V14.4078C39.9546 6.46342 33.4912 0 25.5468 0C17.6024 0.00980793 11.1389 6.47323 11.1389 14.4177ZM27.6849 34.6416C27.3907 34.8574 27.3122 35.0633 27.3122 35.4066C27.322 36.9465 27.322 38.4765 27.322 40.0163C27.3515 40.6539 27.0278 41.2816 26.4589 41.566C25.1152 42.2526 23.7716 41.2914 23.7716 40.0163V40.0065C23.7716 38.4667 23.7716 36.9268 23.7814 35.387C23.7814 35.0731 23.7127 34.8672 23.4381 34.6612C22.0454 33.6314 21.5844 31.8758 22.2808 30.3359C22.9575 28.8353 24.615 27.9526 26.1745 28.2664C27.9105 28.6195 29.1169 30.0123 29.1365 31.7483C29.1365 32.9546 28.6559 33.9354 27.6849 34.6416ZM17.4454 14.4177C17.4454 9.94524 21.0842 6.31631 25.5468 6.31631C30.0192 6.31631 33.6481 9.95505 33.6481 14.4177V19.4295H17.4454V14.4177Z" fill="#FFD200"/>
<path d="M4.8125 23C7.056 23 8.875 24.7271 8.875 26.8571V30.5357H27V32.4643H24.9688V39.0357H22.9375V32.4643H20.9062V37.1071H18.875V32.4643H8.875V36.1429C8.875 38.2729 7.056 40 4.8125 40C2.569 40 0.75 38.2729 0.75 36.1429V26.8571C0.75 24.7271 2.569 23 4.8125 23ZM2.78125 36.1429C2.78125 37.2079 3.69075 38.0714 4.8125 38.0714C5.93425 38.0714 6.84375 37.2079 6.84375 36.1429V26.8571C6.84375 25.7921 5.93425 24.9286 4.8125 24.9286C3.69075 24.9286 2.78125 25.7921 2.78125 26.8571V36.1429Z" fill="black"/>
</svg>
