<svg width="48" height="48" viewBox="0 0 48 48" fill="none" xmlns="http://www.w3.org/2000/svg">
<path d="M48 14V20.8203C47.7114 22.0572 47.0718 23.1931 46.1271 24.1145C44.7983 25.4087 43.0273 26 41.143 26H29.6667V23.7689C29.6667 22.7745 28.8132 21.9609 27.8333 21.9609H24.1667C23.1872 21.9609 22.3333 22.7747 22.3333 23.7689V26H10.8567C8.97244 26 7.20188 25.4087 5.87264 24.1145C4.92708 23.1944 4.28864 22.0576 4 20.8212V14C4 12.3338 5.3442 11 6.98628 11H45.0142C46.656 11 48 12.3338 48 14ZM27.514 30.9767C27.6709 30.9767 27.8333 30.7636 27.8333 30.6047V24C27.8333 23.841 27.6709 23.5349 27.514 23.5349H24.486C24.3298 23.5349 24.1667 23.841 24.1667 24C24.1667 26.384 24.1667 28.2206 24.1667 30.6047C24.1667 30.7636 24.3298 30.9767 24.486 30.9767H27.514ZM47.1618 25.6744C45.5523 27.241 43.4161 28 41.143 28H29.6667V30.9212C29.6667 31.9143 28.8132 32.7285 27.8333 32.7285H24.1667C23.1872 32.7285 22.3333 31.9145 22.3333 30.9212V28H10.8567C8.58414 28 6.4475 27.241 4.8382 25.6744C4.5324 25.3764 4.25256 24.7971 4 24.4651V39.2093C4 40.8768 5.3442 42 6.98628 42H45.0142C46.656 42 48 40.8768 48 39.2093V24.4651C47.747 24.7971 47.4683 25.3764 47.1618 25.6744ZM33 4.88789C32.4166 4.29581 31.5372 4 30.7733 4H21.2275C20.4633 4 19.583 4.29581 19 4.88789C18.4174 5.47952 18 6.25511 18 7.03047V9H21V7.72093C21 7.54634 21.0512 7 21.5 7H30.5C30.9479 7 31 7.44062 31 7.72093V9H34V7.03047C33.9998 6.25511 33.5826 5.47974 33 4.88789Z" fill="#FFD200"/>
<path fill-rule="evenodd" clip-rule="evenodd" d="M22 40H4C2.89543 40 2 40.8954 2 42V44C2 45.1046 2.89543 46 4 46H22C23.1046 46 24 45.1046 24 44V42C24 40.8954 23.1046 40 22 40ZM4 38C1.79086 38 0 39.7909 0 42V44C0 46.2091 1.79086 48 4 48H22C24.2091 48 26 46.2091 26 44V42C26 39.7909 24.2091 38 22 38H4Z" fill="#0F0F0F"/>
<circle cx="6" cy="43" r="2" fill="#0F0F0F"/>
<path fill-rule="evenodd" clip-rule="evenodd" d="M22 28H4C2.89543 28 2 28.8954 2 30V32C2 33.1046 2.89543 34 4 34H22C23.1046 34 24 33.1046 24 32V30C24 28.8954 23.1046 28 22 28ZM4 26C1.79086 26 0 27.7909 0 30V32C0 34.2091 1.79086 36 4 36H22C24.2091 36 26 34.2091 26 32V30C26 27.7909 24.2091 26 22 26H4Z" fill="#0F0F0F"/>
<circle cx="6" cy="31" r="2" fill="#0F0F0F"/>
</svg>
