<svg width="48" height="48" viewBox="0 0 48 48" fill="none" xmlns="http://www.w3.org/2000/svg">
<path fill-rule="evenodd" clip-rule="evenodd" d="M14.0698 44.7578V3.24215C14.0698 1.45787 15.5888 0 17.4429 0H39.6982C41.5523 0 43.0698 1.45924 43.0698 3.24215V44.7592C43.0698 46.5435 41.5523 48.0014 39.6982 48H17.4415C15.5845 48 14.0698 46.5421 14.0698 44.7578ZM32.1305 3.12146C32.3558 3.12146 32.5384 2.76669 32.5384 2.55C32.5384 2.33331 32.3544 2.00137 32.1305 2H25.0106C24.7853 2 24.6027 2.33331 24.6027 2.55C24.6027 2.76669 24.7853 3.12146 25.0106 3.12146H32.1305ZM40.3255 5.14163H30.9757L40.3255 25.0012V5.14163ZM28.3658 46C29.5145 46 30.4458 45.1046 30.4458 44C30.4458 42.8954 29.5145 42 28.3658 42C27.2171 42 26.2859 42.8954 26.2859 44C26.2859 45.1046 27.2171 46 28.3658 46Z" fill="#FFD200"/>
<path d="M11.3833 15.9221C7.32116 19.0193 4.5256 23.8166 4.06599 29.3895C3.60637 34.9624 5.57668 40.1715 9.07401 43.9221L10.6145 42.4157C7.52381 39.1012 5.7826 34.4978 6.18877 29.5729C6.59495 24.648 9.06544 20.4086 12.6552 17.6715L11.3833 15.9221Z" fill="#0F0F0F"/>
<path d="M14.4359 20.1207C11.5074 22.3536 9.49203 25.8121 9.16068 29.8298C8.82933 33.8474 10.2498 37.6028 12.7711 40.3067L14.3116 38.8004C12.1969 36.5326 11.0056 33.3829 11.2835 30.0132C11.5614 26.6436 13.2517 23.7429 15.7079 21.8701L14.4359 20.1207Z" fill="#0F0F0F"/>
<path d="M17.4886 24.3194C15.6937 25.6879 14.4585 27.8076 14.2554 30.2701C14.0523 32.7325 14.9229 35.0342 16.4682 36.6914L18.0087 35.1851C16.87 33.9639 16.2285 32.268 16.3782 30.4535C16.5278 28.6391 17.438 27.0772 18.7605 26.0688L17.4886 24.3194Z" fill="#0F0F0F"/>
<circle cx="20.8164" cy="30.6" r="2" fill="#0F0F0F"/>
</svg>
